<svg version="1.1" id="Layer_1" xmlns="http://www.w3.org/2000/svg" xmlns:xlink="http://www.w3.org/1999/xlink" x="0px" y="0px"
	 width="100%" viewBox="0 0 496 496" enable-background="new 0 0 496 496" xml:space="preserve">
<path fill="#000000" opacity="1.000000" stroke="none" 
	d="
M200.883011,353.280151 
	C185.960693,345.968689 173.582397,336.042175 163.360275,323.436310 
	C161.106476,320.656921 158.447906,319.796722 154.965515,320.694244 
	C134.836975,325.882050 114.523346,330.206818 93.908737,332.937042 
	C81.518089,334.578064 69.062111,335.420410 56.627819,333.252960 
	C54.358818,332.857483 52.067368,332.156250 49.993423,331.163452 
	C45.149940,328.844849 43.611240,324.436646 45.706501,319.483673 
	C47.500843,315.242065 50.591648,311.964294 53.889885,308.882080 
	C67.146904,296.493256 82.577141,287.232330 98.283569,278.436890 
	C108.159042,272.906708 118.266388,267.783661 128.349686,262.634583 
	C133.223145,260.145905 136.920670,260.910614 138.844818,264.349548 
	C140.883820,267.993774 139.400436,271.621765 134.443604,274.436188 
	C126.031952,279.212250 117.692192,284.105011 110.429230,290.549530 
	C107.904564,292.789703 104.107559,295.191315 105.732841,299.113068 
	C107.230904,302.727844 111.443130,302.709625 114.937187,302.633392 
	C134.184982,302.213287 152.796112,297.896729 171.338486,293.211975 
	C209.308914,283.618683 245.941833,269.887756 282.929779,257.240204 
	C300.708862,251.160889 318.674683,245.567322 337.386536,243.068054 
	C343.292542,242.279205 349.349670,241.826645 355.210693,243.675125 
	C361.194885,245.562454 364.096313,249.115097 364.271576,255.363251 
	C364.974213,280.415131 358.248810,303.262726 342.093445,322.570892 
	C320.966492,347.820862 293.133087,360.664764 260.739990,364.416992 
	C239.745117,366.848938 220.085999,362.390350 200.883011,353.280151 
z"/>
<path fill="#000000" opacity="1.000000" stroke="none" 
	d="
M332.181000,171.827972 
	C333.975250,173.830292 335.896362,175.367844 336.999176,177.358704 
	C340.051605,182.869049 344.002563,183.200211 349.799347,181.600143 
	C371.764648,175.537201 394.140839,171.276031 416.816315,168.980423 
	C426.700348,167.979782 436.736450,167.042999 446.607849,169.607101 
	C458.207703,172.620193 460.488678,178.938644 453.094025,188.404221 
	C447.087463,196.092987 439.266998,201.861649 431.319641,207.370956 
	C414.722900,218.876221 396.884399,228.266754 379.048981,237.641708 
	C372.733032,240.961609 366.114471,239.286758 362.833435,233.829498 
	C359.300110,227.952621 360.930847,221.565872 367.084351,217.419617 
	C373.984711,212.770126 381.345337,208.773224 387.597534,203.207764 
	C390.409424,200.704712 394.642517,197.992111 393.080872,193.983414 
	C391.573944,190.115051 386.513763,190.405045 382.827698,190.495575 
	C370.161652,190.806686 357.744476,193.109894 345.384705,195.829803 
	C303.516663,205.043365 263.191162,219.181656 223.001419,233.801590 
	C205.945618,240.006042 188.484100,244.889465 170.566833,247.895493 
	C164.184540,248.966278 157.659073,249.225189 151.193253,248.207687 
	C142.280396,246.805099 137.737427,241.109604 138.831146,231.998596 
	C140.785355,215.719650 146.022339,200.463242 155.441559,187.017700 
	C175.920517,157.784836 204.853027,142.607468 239.750854,138.652222 
	C275.665039,134.581818 306.124023,146.822601 332.181000,171.827972 
z"/>
</svg>